<?xml version="1.0" encoding="utf-8"?>
<svg xmlns="http://www.w3.org/2000/svg" viewBox="500.0005 0 499.9999 499.9999"><defs><linearGradient id="main" gradientUnits="userSpaceOnUse" gradientTransform="matrix(-0.053985, 0, -0.035152, 0.148016, 364.928288, 197.821939)"><title>miq</title><stop style="stop-color: rgb(102, 0, 255);"/></linearGradient><linearGradient id="highlight" gradientUnits="userSpaceOnUse" gradientTransform="matrix(1, 0, 0, 1, -36.418789, -2.71343)"><title>fill</title><stop style="stop-color: rgb(0, 102, 255);"/></linearGradient><filter id="outline-filter-0" color-interpolation-filters="sRGB" x="-50%" y="-50%" width="200%" height="200%"><title>glow</title><feFlood result="flood" style="flood-color: rgb(0, 102, 255);"/><feMorphology in="SourceAlpha" result="dilated" operator="dilate" radius="4"/><feComposite in="flood" in2="dilated" operator="in" result="outline"/><feGaussianBlur result="gaussian-blur-0" in="outline" stdDeviation="5"/><feComposite result="composite-0" in="SourceGraphic" in2="gaussian-blur-0" operator="over"/><feMerge result="merge-0"><feMergeNode in="composite-0"/></feMerge></filter></defs><g style="" transform="matrix(1.0984710454940796, 0, 0, 1.0984710454940796, 515.744873046875, -7.601438045501709)" id="object-0"><title>icon</title><rect x="-14.333" y="6.92" width="455.178" height="455.178" style="fill: none; transform-origin: -14.334px 6.92px; stroke-width: 0px;"><title>BOUNDS</title></rect><path style="fill-rule: nonzero; stroke-linecap: round; stroke-linejoin: round; stroke-dashoffset: -52px; paint-order: fill; fill: url(&quot;#main&quot;); stroke: url(&quot;#highlight&quot;); filter: url(&quot;#outline-filter-0&quot;); stroke-width: 9.10356px;" d="M 314.92 395.128 L 303.168 338.409 C 315.918 413.911 278.931 421.314 278.167 418.651 L 279.793 372.135 L 279.803 372.115 C 243.001 406.841 184.401 407.076 147.13 372.576 L 148.472 420.071 C 147.718 422.725 110.887 415.341 123.637 339.829 L 111.71 396.392 C 111.71 396.392 53.697 385.571 98.685 220.993 C 47.577 218.927 23.849 211.387 103.043 186.474 C 121.786 9.038 121.786 9.038 183.628 150.857 C 196.613 145.795 208.874 145.795 212.223 145.795 C 215.572 145.795 226.432 145.795 239.153 150.857 C 300.416 9.038 300.416 9.038 319.982 185.896 C 357.499 197.5 372.775 205.403 373.324 210.75 C 373.97 216.939 354.913 219.72 327.817 220.905 C 372.795 385.483 314.92 395.128 314.92 395.128 Z M 336.886 257.776 L 351.27 256.14 C 422.288 252.937 424.834 264.689 358.889 291.433 C 430.298 310.842 431.032 318.921 361.102 315.719 C 420.525 348.074 420.75 358.131 361.788 345.881 L 344.353 342.675 C 346.58 308.184 342.569 282.755 336.886 257.776 Z M 82.04 338.623 L 64.734 342.394 C 5.771 354.645 5.977 344.598 65.419 312.242 C -4.521 315.454 -3.786 307.366 67.613 287.956 C 1.668 261.212 4.214 249.451 75.231 252.653 L 90.156 253.908 C 85.362 271.181 78.956 314.473 82.04 338.623 Z" id="object-3"/></g></svg>