<?xml version="1.0" encoding="utf-8"?>
<svg xmlns="http://www.w3.org/2000/svg" viewBox="550 0 500 500" width="500" height="500" xmlns:bx="https://boxy-svg.com"><defs><linearGradient id="main" gradientUnits="userSpaceOnUse" gradientTransform="matrix(-0.053985, 0, -0.035152, 0.148016, 401.342186, 197.821175)"><title>miq</title><stop style="stop-color: rgb(102, 0, 255);"/></linearGradient><linearGradient id="christmas-one" gradientUnits="userSpaceOnUse"><stop style="stop-color: rgb(255, 255, 0);"/></linearGradient><filter id="blur-filter-0" color-interpolation-filters="sRGB" x="-50%" y="-50%" width="200%" height="200%"><title>blur</title><feGaussianBlur stdDeviation="15" edgeMode="none" in="SourceGraphic" result="gaussian-blur-0"/></filter><linearGradient id="christmas-miq" gradientUnits="userSpaceOnUse"><stop style="stop-color: rgb(102, 0, 255);"/></linearGradient><linearGradient id="christmas-rad" gradientUnits="userSpaceOnUse"><stop style="stop-color: rgb(0, 255, 0);"/></linearGradient><linearGradient id="christmas-dog" gradientUnits="userSpaceOnUse"><stop style="stop-color: rgb(0, 0, 255);"/></linearGradient><linearGradient id="christmas-frs" gradientUnits="userSpaceOnUse"><stop style="stop-color: rgb(255, 0, 255);"/></linearGradient><linearGradient id="highlight" gradientUnits="userSpaceOnUse" gradientTransform="matrix(1, 0, 0, 1, -0.004776, -2.714157)"><title>fill</title><stop style="stop-color: rgb(0, 102, 255);"/></linearGradient></defs><g style="" transform="matrix(1.0984710454940796, 0, 0, 1.0984710454940796, 565.7444458007815, -7.601352214813232)" id="object-0"><title>icon</title><g transform="matrix(1, 0, 0, 1, -36.418781, -2.71343)"><title>glow</title><g style="" transform="matrix(1, 0, 0, 1, 0.71854, 0)"><title>main</title><path style="fill-rule: nonzero; paint-order: fill; stroke-linecap: round; stroke-linejoin: round; filter: url(&quot;#blur-filter-0&quot;); stroke-width: 45.5178px; stroke-dasharray: 1, 200; stroke-dashoffset: -180px; stroke: url(&quot;#christmas-one&quot;); fill: url(&quot;#main&quot;);" d="M 351.339 397.841 L 339.587 341.122 C 352.337 416.624 315.35 424.027 314.586 421.364 L 316.212 374.848 L 316.222 374.828 C 279.42 409.554 220.82 409.789 183.549 375.289 L 184.891 422.784 C 184.137 425.438 147.306 418.054 160.056 342.542 L 148.129 399.105 C 148.129 399.105 90.116 388.284 135.104 223.706 C 83.996 221.64 60.268 214.1 139.462 189.187 C 158.205 11.751 158.205 11.751 220.047 153.57 C 233.032 148.508 245.293 148.508 248.642 148.508 C 251.991 148.508 262.851 148.508 275.572 153.57 C 336.835 11.751 336.835 11.751 356.401 188.609 C 393.918 200.213 409.194 208.116 409.743 213.463 C 410.389 219.652 391.332 222.433 364.236 223.618 C 409.214 388.196 351.339 397.841 351.339 397.841 Z"><title>5</title></path><path style="fill-rule: nonzero; paint-order: fill; stroke-linecap: round; stroke-linejoin: round; filter: url(&quot;#blur-filter-0&quot;); stroke-width: 45.5178px; stroke-dashoffset: -60px; stroke-dasharray: 1, 200; stroke: url(&quot;#christmas-miq&quot;); fill: url(&quot;#main&quot;);" d="M 351.339 397.841 L 339.587 341.122 C 352.337 416.624 315.35 424.027 314.586 421.364 L 316.212 374.848 L 316.222 374.828 C 279.42 409.554 220.82 409.789 183.549 375.289 L 184.891 422.784 C 184.137 425.438 147.306 418.054 160.056 342.542 L 148.129 399.105 C 148.129 399.105 90.116 388.284 135.104 223.706 C 83.996 221.64 60.268 214.1 139.462 189.187 C 158.205 11.751 158.205 11.751 220.047 153.57 C 233.032 148.508 245.293 148.508 248.642 148.508 C 251.991 148.508 262.851 148.508 275.572 153.57 C 336.835 11.751 336.835 11.751 356.401 188.609 C 393.918 200.213 409.194 208.116 409.743 213.463 C 410.389 219.652 391.332 222.433 364.236 223.618 C 409.214 388.196 351.339 397.841 351.339 397.841 Z"><title>4</title></path><path style="fill-rule: nonzero; paint-order: fill; stroke-linecap: round; stroke-linejoin: round; filter: url(&quot;#blur-filter-0&quot;); stroke-width: 45.5178px; stroke-dasharray: 1, 200; stroke-dashoffset: -140px; stroke: url(&quot;#christmas-rad&quot;); fill: url(&quot;#main&quot;);" d="M 351.339 397.841 L 339.587 341.122 C 352.337 416.624 315.35 424.027 314.586 421.364 L 316.212 374.848 L 316.222 374.828 C 279.42 409.554 220.82 409.789 183.549 375.289 L 184.891 422.784 C 184.137 425.438 147.306 418.054 160.056 342.542 L 148.129 399.105 C 148.129 399.105 90.116 388.284 135.104 223.706 C 83.996 221.64 60.268 214.1 139.462 189.187 C 158.205 11.751 158.205 11.751 220.047 153.57 C 233.032 148.508 245.293 148.508 248.642 148.508 C 251.991 148.508 262.851 148.508 275.572 153.57 C 336.835 11.751 336.835 11.751 356.401 188.609 C 393.918 200.213 409.194 208.116 409.743 213.463 C 410.389 219.652 391.332 222.433 364.236 223.618 C 409.214 388.196 351.339 397.841 351.339 397.841 Z"><title>3</title></path><path style="fill-rule: nonzero; paint-order: fill; stroke-linecap: round; stroke-linejoin: round; filter: url(&quot;#blur-filter-0&quot;); stroke-width: 45.5178px; stroke-dashoffset: -20px; stroke-dasharray: 1, 200; stroke: url(&quot;#christmas-dog&quot;); fill: url(&quot;#main&quot;);" d="M 351.339 397.841 L 339.587 341.122 C 352.337 416.624 315.35 424.027 314.586 421.364 L 316.212 374.848 L 316.222 374.828 C 279.42 409.554 220.82 409.789 183.549 375.289 L 184.891 422.784 C 184.137 425.438 147.306 418.054 160.056 342.542 L 148.129 399.105 C 148.129 399.105 90.116 388.284 135.104 223.706 C 83.996 221.64 60.268 214.1 139.462 189.187 C 158.205 11.751 158.205 11.751 220.047 153.57 C 233.032 148.508 245.293 148.508 248.642 148.508 C 251.991 148.508 262.851 148.508 275.572 153.57 C 336.835 11.751 336.835 11.751 356.401 188.609 C 393.918 200.213 409.194 208.116 409.743 213.463 C 410.389 219.652 391.332 222.433 364.236 223.618 C 409.214 388.196 351.339 397.841 351.339 397.841 Z"><title>2</title></path><path style="fill-rule: nonzero; paint-order: fill; stroke-linecap: round; stroke-linejoin: round; filter: url(&quot;#blur-filter-0&quot;); stroke-width: 45.5178px; stroke-dasharray: 1, 200; stroke-dashoffset: -100px; stroke: url(&quot;#christmas-frs&quot;); fill: url(&quot;#main&quot;);" d="M 351.339 397.841 L 339.587 341.122 C 352.337 416.624 315.35 424.027 314.586 421.364 L 316.212 374.848 L 316.222 374.828 C 279.42 409.554 220.82 409.789 183.549 375.289 L 184.891 422.784 C 184.137 425.438 147.306 418.054 160.056 342.542 L 148.129 399.105 C 148.129 399.105 90.116 388.284 135.104 223.706 C 83.996 221.64 60.268 214.1 139.462 189.187 C 158.205 11.751 158.205 11.751 220.047 153.57 C 233.032 148.508 245.293 148.508 248.642 148.508 C 251.991 148.508 262.851 148.508 275.572 153.57 C 336.835 11.751 336.835 11.751 356.401 188.609 C 393.918 200.213 409.194 208.116 409.743 213.463 C 410.389 219.652 391.332 222.433 364.236 223.618 C 409.214 388.196 351.339 397.841 351.339 397.841 Z"><title>1</title></path></g><path style="stroke-linejoin: round; fill-rule: nonzero; paint-order: fill; fill: none; stroke-linecap: round; stroke: url(&quot;#highlight&quot;); filter: url(&quot;#blur-filter-0&quot;); stroke-width: 18.2071px;" d="M 101.153 345.107 C 42.19 357.358 42.396 347.311 101.838 314.955 C 31.898 318.167 32.633 310.079 104.032 290.669 C 38.087 263.925 40.633 252.164 111.65 255.366"><title>whisker left</title></path><path style="stroke-linejoin: round; fill-rule: nonzero; stroke-linecap: round; paint-order: stroke; fill: none; stroke: url(&quot;#highlight&quot;); filter: url(&quot;#blur-filter-0&quot;); stroke-width: 18.2071px;" d="M 387.689 258.853 C 458.707 255.65 461.253 267.402 395.308 294.146 C 466.717 313.555 467.451 321.634 397.521 318.432 C 456.944 350.787 457.169 360.844 398.207 348.594"><title>whisker right</title></path></g><path style="fill-rule: nonzero; stroke-linecap: round; stroke-linejoin: round; stroke-dashoffset: -52px; paint-order: fill; filter: none; vector-effect: non-scaling-stroke; fill: url(&quot;#main&quot;); stroke: url(&quot;#main&quot;);" d="M 337.164 257.819 L 351.27 256.14 C 422.288 252.937 424.834 264.689 358.889 291.433 C 430.298 310.842 431.032 318.921 361.102 315.719 C 420.525 348.074 420.75 358.131 361.788 345.881 L 344.353 342.675 C 346.58 308.184 342.847 282.798 337.164 257.819 Z" id="object-3"/><path style="fill-rule: nonzero; stroke-linecap: round; stroke-linejoin: round; stroke-dashoffset: -52px; paint-order: fill; filter: none; vector-effect: non-scaling-stroke; fill: url(&quot;#main&quot;); stroke: url(&quot;#main&quot;);" d="M 82.04 338.623 L 64.734 342.394 C 5.771 354.645 5.977 344.598 65.419 312.242 C -4.521 315.454 -3.786 307.366 67.613 287.956 C 1.668 261.212 4.214 249.451 75.231 252.653 L 90.156 253.908 C 85.362 271.181 78.956 314.473 82.04 338.623 Z" id="object-3"/><path style="fill-rule: nonzero; stroke-linecap: round; stroke-linejoin: round; stroke-dashoffset: -52px; paint-order: fill; filter: none; vector-effect: non-scaling-stroke; fill: url(&quot;#main&quot;);" d="M 314.92 395.128 L 303.168 338.409 C 315.918 413.911 278.931 421.314 278.167 418.651 L 279.793 372.135 L 279.803 372.115 C 243.001 406.841 184.401 407.076 147.13 372.576 L 148.472 420.071 C 147.718 422.725 110.887 415.341 123.637 339.829 L 111.71 396.392 C 111.71 396.392 53.697 385.571 98.685 220.993 C 47.577 218.927 23.849 211.387 103.043 186.474 C 121.786 9.038 121.786 9.038 183.628 150.857 C 196.613 145.795 208.874 145.795 212.223 145.795 C 215.572 145.795 226.432 145.795 239.153 150.857 C 300.416 9.038 300.416 9.038 319.982 185.896 C 357.499 197.5 372.775 205.403 373.324 210.75 C 373.97 216.939 354.913 219.72 327.817 220.905 C 372.795 385.483 314.92 395.128 314.92 395.128 Z" id="object-3"/></g></svg>