<?xml version="1.0" encoding="utf-8"?>
<svg xmlns="http://www.w3.org/2000/svg" viewBox="550 0 500 500" width="500" height="500" xmlns:bx="https://boxy-svg.com"><defs><linearGradient id="main" gradientUnits="userSpaceOnUse" gradientTransform="matrix(-0.053985, 0, -0.035152, 0.148016, 552.196602, 472.90601)"><title>miq</title><stop style="stop-color: rgb(102, 0, 255);"/></linearGradient><linearGradient id="christmas-miq" gradientUnits="userSpaceOnUse" gradientTransform="matrix(1.098471, 0, 0, 1.098471, 84.696991, 188.024048)"><stop style="stop-color: rgb(102, 0, 255);"/></linearGradient><filter id="blur-filter-0" color-interpolation-filters="sRGB" x="-50%" y="-50%" width="200%" height="200%"><title>blur</title><feGaussianBlur stdDeviation="15" edgeMode="none" in="SourceGraphic" result="gaussian-blur-0"/></filter><linearGradient id="christmas-frs" gradientUnits="userSpaceOnUse" gradientTransform="matrix(1.098471, 0, 0, 1.098471, -24.211212, -23.360582)"><stop style="stop-color: rgb(255, 0, 255);"/></linearGradient><linearGradient id="christmas-dog" gradientUnits="userSpaceOnUse" gradientTransform="matrix(1.098471, 0, 0, 1.098471, -24.211212, -23.360582)"><stop style="stop-color: rgb(0, 0, 255);"/></linearGradient><linearGradient id="christmas-rad" gradientUnits="userSpaceOnUse" gradientTransform="matrix(1.098471, 0, 0, 1.098471, -24.211212, -23.360582)"><stop style="stop-color: rgb(0, 255, 0);"/></linearGradient><linearGradient id="christmas-one" gradientUnits="userSpaceOnUse" gradientTransform="matrix(1.098471, 0, 0, 1.098471, 30.638092, 82.331497)"><stop style="stop-color: rgb(255, 255, 0);"/></linearGradient><linearGradient id="highlight" gradientUnits="userSpaceOnUse" gradientTransform="matrix(1, 0, 0, 1, -0.004776, -2.714157)"><title>fill</title><stop style="stop-color: rgb(127, 255, 0);"/></linearGradient></defs><g style="" transform="matrix(1.0984710454940796, 0, 0, 1.0984710454940796, 565.7444458007812, -7.601352214813232)" id="object-0"><title>icon</title><g transform="matrix(1, 0, 0, 1, -36.418781, -2.71343)" style=""><title>glow</title><g style="visibility: hidden;"><title>main</title><path style="fill-rule: nonzero; paint-order: fill; stroke-linecap: round; stroke-linejoin: round; filter: url(&quot;#blur-filter-0&quot;); stroke-width: 45.5178px; stroke-dasharray: 1, 200; stroke-dashoffset: -180px; stroke: url(&quot;#christmas-miq&quot;); fill: url(&quot;#main&quot;);" d="M 362.536 413.657 L 349.627 351.353 C 363.633 434.29 323.003 442.422 322.164 439.497 L 323.95 388.4 L 323.961 388.378 C 283.535 426.524 219.165 426.782 178.224 388.885 L 179.698 441.056 C 178.87 443.972 138.412 435.861 152.418 352.913 L 139.313 415.046 C 139.313 415.046 75.59 403.159 125.011 222.375 C 68.868 220.106 42.801 211.823 129.8 184.457 C 150.385 -10.451 150.385 -10.451 218.316 145.333 C 232.58 139.772 246.048 139.772 249.727 139.772 C 253.405 139.772 265.335 139.772 279.309 145.333 C 346.604 -10.451 346.604 -10.451 368.095 183.822 C 409.309 196.569 426.083 205.25 426.687 211.123 C 427.401 217.922 406.464 220.977 376.707 222.278 C 426.105 403.063 362.536 413.657 362.536 413.657 Z"><title>5</title><animate attributeName="stroke-dashoffset" values="0px;-1891px;0px" dur="5s" fill="freeze" keyTimes="0; 0.5; 1" calcMode="discrete" repeatCount="indefinite"/></path><path style="fill-rule: nonzero; paint-order: fill; stroke-linecap: round; stroke-linejoin: round; filter: url(&quot;#blur-filter-0&quot;); stroke-width: 45.5178px; stroke: url(&quot;#christmas-frs&quot;); stroke-dashoffset: -60px; stroke-dasharray: 1, 200; fill: url(&quot;#main&quot;);" d="M 361.747 413.657 L 348.837 351.353 C 362.843 434.29 322.214 442.422 321.374 439.497 L 323.161 388.4 L 323.172 388.378 C 282.746 426.524 218.375 426.782 177.434 388.885 L 178.908 441.056 C 178.08 443.972 137.622 435.861 151.628 352.913 L 138.526 415.046 C 138.526 415.046 74.801 403.159 124.219 222.375 C 68.078 220.106 42.013 211.823 129.006 184.457 C 149.594 -10.451 149.594 -10.451 217.526 145.333 C 231.79 139.772 245.258 139.772 248.937 139.772 C 252.616 139.772 264.545 139.772 278.519 145.333 C 345.814 -10.451 345.814 -10.451 367.304 183.822 C 408.518 196.569 425.303 205.25 425.907 211.123 C 426.61 217.922 405.673 220.977 375.916 222.278 C 425.325 403.063 361.747 413.657 361.747 413.657 Z"><animate attributeName="stroke-dashoffset" values="-60px;-1771px;-60px" dur="5s" fill="freeze" keyTimes="0; 0.5; 1" calcMode="discrete" repeatCount="indefinite"/><title>4</title></path><path style="fill-rule: nonzero; paint-order: fill; stroke-linecap: round; stroke-linejoin: round; filter: url(&quot;#blur-filter-0&quot;); stroke-width: 45.5178px; stroke: url(&quot;#christmas-dog&quot;); stroke-dasharray: 1, 200; stroke-dashoffset: -140px; fill: url(&quot;#main&quot;);" d="M 361.747 413.657 L 348.837 351.353 C 362.843 434.29 322.214 442.422 321.374 439.497 L 323.161 388.4 L 323.172 388.378 C 282.746 426.524 218.375 426.782 177.434 388.885 L 178.908 441.056 C 178.08 443.972 137.622 435.861 151.628 352.913 L 138.526 415.046 C 138.526 415.046 74.801 403.159 124.219 222.375 C 68.078 220.106 42.013 211.823 129.006 184.457 C 149.594 -10.451 149.594 -10.451 217.526 145.333 C 231.79 139.772 245.258 139.772 248.937 139.772 C 252.616 139.772 264.545 139.772 278.519 145.333 C 345.814 -10.451 345.814 -10.451 367.304 183.822 C 408.518 196.569 425.303 205.25 425.907 211.123 C 426.61 217.922 405.673 220.977 375.916 222.278 C 425.325 403.063 361.747 413.657 361.747 413.657 Z"><title>3</title><animate attributeName="stroke-dashoffset" values="-140px;-1851px;-140px" dur="5s" fill="freeze" keyTimes="0; 0.5; 1" calcMode="discrete" repeatCount="indefinite"/></path><path style="fill-rule: nonzero; paint-order: fill; stroke-linecap: round; stroke-linejoin: round; filter: url(&quot;#blur-filter-0&quot;); stroke-width: 45.5178px; stroke-dashoffset: -20px; stroke: url(&quot;#christmas-rad&quot;); stroke-dasharray: 1, 200; fill: url(&quot;#main&quot;);" d="M 361.747 413.657 L 348.837 351.353 C 362.843 434.29 322.214 442.422 321.374 439.497 L 323.161 388.4 L 323.172 388.378 C 282.746 426.524 218.375 426.782 177.434 388.885 L 178.908 441.056 C 178.08 443.972 137.622 435.861 151.628 352.913 L 138.526 415.046 C 138.526 415.046 74.801 403.159 124.219 222.375 C 68.078 220.106 42.013 211.823 129.006 184.457 C 149.594 -10.451 149.594 -10.451 217.526 145.333 C 231.79 139.772 245.258 139.772 248.937 139.772 C 252.616 139.772 264.545 139.772 278.519 145.333 C 345.814 -10.451 345.814 -10.451 367.304 183.822 C 408.518 196.569 425.303 205.25 425.907 211.123 C 426.61 217.922 405.673 220.977 375.916 222.278 C 425.325 403.063 361.747 413.657 361.747 413.657 Z"><title>2</title><animate attributeName="stroke-dashoffset" values="-20px;-1731px;-20px" dur="5s" keyTimes="0; 0.5; 1" calcMode="discrete" repeatCount="indefinite"/></path><path style="fill-rule: nonzero; paint-order: fill; stroke-linecap: round; stroke-linejoin: round; filter: url(&quot;#blur-filter-0&quot;); stroke: url(&quot;#christmas-one&quot;); stroke-width: 45.5178px; stroke-dasharray: 1, 200; stroke-dashoffset: -100px; fill: url(&quot;#main&quot;);" d="M 361.747 413.657 L 348.837 351.353 C 362.843 434.29 322.214 442.422 321.374 439.497 L 323.161 388.4 L 323.172 388.378 C 282.746 426.524 218.375 426.782 177.434 388.885 L 178.908 441.056 C 178.08 443.972 137.622 435.861 151.628 352.913 L 138.526 415.046 C 138.526 415.046 74.801 403.159 124.219 222.375 C 68.078 220.106 42.013 211.823 129.006 184.457 C 149.594 -10.451 149.594 -10.451 217.526 145.333 C 231.79 139.772 245.258 139.772 248.937 139.772 C 252.616 139.772 264.545 139.772 278.519 145.333 C 345.814 -10.451 345.814 -10.451 367.304 183.822 C 408.518 196.569 425.303 205.25 425.907 211.123 C 426.61 217.922 405.673 220.977 375.916 222.278 C 425.325 403.063 361.747 413.657 361.747 413.657 Z"><title>1</title><animate attributeName="stroke-dashoffset" values="-100px;-1871px;-100px" dur="5s" fill="freeze" keyTimes="0; 0.5; 1" calcMode="discrete" repeatCount="indefinite"/></path></g><path style="stroke-linejoin: round; fill-rule: nonzero; paint-order: fill; fill: none; stroke-linecap: round; stroke: url(&quot;#highlight&quot;); filter: url(&quot;#blur-filter-0&quot;); stroke-width: 18.2071px;" d="M 101.153 345.107 C 42.19 357.358 42.396 347.311 101.838 314.955 C 31.898 318.167 32.633 310.079 104.032 290.669 C 38.087 263.925 40.633 252.164 111.65 255.366"><title>whisker left</title></path><path style="stroke-linejoin: round; fill-rule: nonzero; stroke-linecap: round; paint-order: stroke; fill: none; stroke: url(&quot;#highlight&quot;); filter: url(&quot;#blur-filter-0&quot;); stroke-width: 18.2071px;" d="M 387.689 258.853 C 458.707 255.65 461.253 267.402 395.308 294.146 C 466.717 313.555 467.451 321.634 397.521 318.432 C 456.944 350.787 457.169 360.844 398.207 348.594"><title>whisker right</title></path></g><path style="fill-rule: nonzero; stroke-linecap: round; stroke-linejoin: round; stroke-dashoffset: -52px; paint-order: fill; filter: none; vector-effect: non-scaling-stroke; fill: url(&quot;#main&quot;); stroke: url(&quot;#main&quot;);" d="M 337.164 257.819 L 351.27 256.14 C 422.288 252.937 424.834 264.689 358.889 291.433 C 430.298 310.842 431.032 318.921 361.102 315.719 C 420.525 348.074 420.75 358.131 361.788 345.881 L 344.353 342.675 C 346.58 308.184 342.847 282.798 337.164 257.819 Z" id="object-3"/><path style="fill-rule: nonzero; stroke-linecap: round; stroke-linejoin: round; stroke-dashoffset: -52px; paint-order: fill; filter: none; vector-effect: non-scaling-stroke; fill: url(&quot;#main&quot;); stroke: url(&quot;#main&quot;);" d="M 82.04 338.623 L 64.734 342.394 C 5.771 354.645 5.977 344.598 65.419 312.242 C -4.521 315.454 -3.786 307.366 67.613 287.956 C 1.668 261.212 4.214 249.451 75.231 252.653 L 90.156 253.908 C 85.362 271.181 78.956 314.473 82.04 338.623 Z" id="object-3"/><path style="fill-rule: nonzero; stroke-linecap: round; stroke-linejoin: round; stroke-dashoffset: -52px; paint-order: fill; filter: none; vector-effect: non-scaling-stroke; fill: url(&quot;#main&quot;);" d="M 314.92 395.128 L 303.168 338.409 C 315.918 413.911 278.931 421.314 278.167 418.651 L 279.793 372.135 L 279.803 372.115 C 243.001 406.841 184.401 407.076 147.13 372.576 L 148.472 420.071 C 147.718 422.725 110.887 415.341 123.637 339.829 L 111.71 396.392 C 111.71 396.392 53.697 385.571 98.685 220.993 C 47.577 218.927 23.849 211.387 103.043 186.474 C 121.786 9.038 121.786 9.038 183.628 150.857 C 196.613 145.795 208.874 145.795 212.223 145.795 C 215.572 145.795 226.432 145.795 239.153 150.857 C 300.416 9.038 300.416 9.038 319.982 185.896 C 357.499 197.5 372.775 205.403 373.324 210.75 C 373.97 216.939 354.913 219.72 327.817 220.905 C 372.795 385.483 314.92 395.128 314.92 395.128 Z" id="object-3"/></g></svg>