<?xml version="1.0" encoding="utf-8"?>
<svg xmlns="http://www.w3.org/2000/svg" viewBox="0.0002 0 499.9999 499.9999" width="100%" height="100%" xmlns:bx="https://boxy-svg.com"><defs><filter id="outline-filter-0" color-interpolation-filters="sRGB" x="-50%" y="-50%" width="200%" height="200%"><title>glow</title><feFlood result="flood" style="flood-color: rgb(0, 102, 255);"/><feMorphology in="SourceAlpha" result="dilated" operator="dilate" radius="4"/><feComposite in="flood" in2="dilated" operator="in" result="outline"/><feGaussianBlur result="gaussian-blur-0" in="outline" stdDeviation="5"/><feComposite result="composite-0" in="SourceGraphic" in2="gaussian-blur-0" operator="over"/><feMerge result="merge-0"><feMergeNode in="composite-0"/></feMerge></filter><linearGradient id="black" gradientUnits="userSpaceOnUse" gradientTransform="matrix(0.865959, 0, 0, 0.865959, 33.469133, 34.163633)"><title>blacque</title><stop style="stop-color: rgb(0, 0, 0);"/></linearGradient><linearGradient id="main" gradientUnits="userSpaceOnUse" gradientTransform="matrix(-0.053985, 0, -0.035152, 0.148016, 364.928288, 197.821939)"><title>miq</title><stop style="stop-color: rgb(102, 0, 255);"/></linearGradient></defs><g style="pointer-events: all;" transform="matrix(1.0984710454940796, 0, 0, 1.0984710454940796, -24.255167007446296, -7.601438045501709)" id="object-2"><title>miq</title><rect x="22.081" y="6.92" width="455.178" height="455.178" style="fill: none; stroke-width: 0px;"><title>BOUNDS</title></rect><g style="" id="object-1"><title>background</title><path style="stroke-linejoin: round; fill-rule: nonzero; paint-order: fill; fill: none; stroke-linecap: round; stroke: rgb(0, 0, 0); filter: url(&quot;#filter-0&quot;) url(&quot;#outline-filter-0&quot;); stroke-width: 9px;" d="M 101.153 345.107 C 42.19 357.358 42.396 347.311 101.838 314.955 C 31.898 318.167 32.633 310.079 104.032 290.669 C 38.087 263.925 40.633 252.164 111.65 255.366"><title>whisker left</title></path><path style="stroke-linejoin: round; fill-rule: nonzero; stroke-linecap: round; paint-order: stroke; fill: none; stroke: rgb(0, 0, 0); filter: url(&quot;#filter-0&quot;) url(&quot;#outline-filter-0&quot;); stroke-width: 9px;" d="M 387.689 258.853 C 458.707 255.65 461.253 267.402 395.308 294.146 C 466.717 313.555 467.451 321.634 397.521 318.432 C 456.944 350.787 457.169 360.844 398.207 348.594"><title>whisker right</title></path><path style="fill-rule: nonzero; paint-order: fill; fill: url(&quot;#black&quot;); filter: url(&quot;#outline-filter-0&quot;); stroke-linecap: round; stroke-linejoin: round; stroke-dashoffset: -52px; stroke: rgb(0, 0, 0); stroke-width: 31.8625px;" d="M 351.339 397.841 L 339.587 341.122 C 352.337 416.624 315.35 424.027 314.586 421.364 L 316.212 374.848 L 316.222 374.828 C 279.42 409.554 220.82 409.789 183.549 375.289 L 184.891 422.784 C 184.137 425.438 147.306 418.054 160.056 342.542 L 148.129 399.105 C 148.129 399.105 90.116 388.284 135.104 223.706 C 83.996 221.64 60.268 214.1 139.462 189.187 C 158.205 11.751 158.205 11.751 220.047 153.57 C 233.032 148.508 245.293 148.508 248.642 148.508 C 251.991 148.508 262.851 148.508 275.572 153.57 C 336.835 11.751 336.835 11.751 356.401 188.609 C 393.918 200.213 409.194 208.116 409.743 213.463 C 410.389 219.652 391.332 222.433 364.236 223.618 C 409.214 388.196 351.339 397.841 351.339 397.841 Z"><title>main</title></path></g><path style="stroke-linecap: round; stroke-linejoin: round; paint-order: stroke; fill: none; stroke: url(&quot;#main&quot;); stroke-width: 12.745px;" d="M 139.442 189.216 C 158.186 11.791 158.186 11.791 220.027 153.6 C 233.012 148.537 245.273 148.537 248.622 148.537 C 251.971 148.537 262.841 148.537 275.552 153.6 C 336.826 11.791 336.826 11.791 356.382 188.638 C 393.898 200.243 409.175 208.155 409.723 213.492 C 411.163 227.359 313.881 224.127 248.622 224.127 C 158.186 224.127 8.826 230.316 139.442 189.216 Z"><title>hat</title></path><g style=""><title>bacque hair</title><path style="stroke-linecap: round; stroke-linejoin: round; paint-order: stroke; fill: none; stroke: url(&quot;#main&quot;); stroke-width: 12.745px;" d="M 364.216 223.638 C 409.204 388.225 351.329 397.881 351.329 397.881 L 339.568 341.141 C 352.318 416.653 315.33 424.057 314.567 421.403 L 316.192 374.877 M 183.529 375.328 L 184.871 422.813 C 184.117 425.477 147.286 418.083 160.037 342.571 L 148.119 399.144 C 148.119 399.144 90.097 388.323 135.094 223.736"/></g><g style=""><title>front hair</title><path style="stroke-linecap: round; stroke-linejoin: round; paint-order: stroke; fill: none; stroke: url(&quot;#main&quot;); stroke-width: 12.745px;" d="M 172.131 224.451 C 161.094 359.865 120.777 359.268 120.777 359.268"><title>left</title></path><path style="stroke-linecap: round; stroke-linejoin: round; paint-order: stroke; fill: none; stroke: url(&quot;#main&quot;); stroke-width: 12.745px;" d="M 327.327 224.46 C 338.353 359.885 378.367 359.522 378.367 359.522"><title>right</title></path></g><path style="stroke-linecap: round; stroke-linejoin: round; paint-order: stroke; fill: none; stroke: url(&quot;#main&quot;); stroke-width: 12.745px;" d="M 152.937 322.065 C 179.661 427.876 320.942 427.141 346.109 321.331"><title>3</title></path><g><title>whiskers</title><path style="fill: none; stroke-linecap: round; stroke-linejoin: round; paint-order: fill; stroke: url(&quot;#main&quot;); stroke-width: 12.745px;" d="M 111.631 255.406 C 40.614 252.203 38.068 263.955 104.022 290.699 C 32.613 310.108 31.879 318.197 101.819 314.985 C 42.376 347.35 42.171 357.397 101.133 345.147"><title>left</title></path><path style="fill: none; stroke-linecap: round; stroke-linejoin: round; paint-order: fill; stroke: url(&quot;#main&quot;); stroke-width: 12.745px;" d="M 387.67 258.882 C 458.697 255.68 461.233 267.441 395.288 294.185 C 466.697 313.584 467.432 321.673 397.502 318.471 C 456.934 350.826 457.149 360.874 398.187 348.633"><title>right</title></path></g><g style=""><title>face</title><path style="fill: none; paint-order: fill; stroke: url(&quot;#main&quot;); stroke-linecap: square; stroke-miterlimit: 1; stroke-linejoin: round; stroke-width: 12.745px;" d="M 206.415 346.939 L 209.42633333333333 349.5846666666667 C 212.43766666666667 352.23033333333336 218.46033333333332 357.5216666666667 225.65483333333336 357.4448333333333 C 232.84933333333333 357.368 241.21566666666664 351.923 249.53949999999998 351.9213333333333 C 257.8633333333333 351.91966666666667 266.14466666666664 357.36133333333333 273.41583333333335 357.51483333333334 C 280.68699999999995 357.66833333333335 286.94800000000004 352.5336666666667 290.0785 349.9663333333333 L 293.209 347.399"><title>3</title></path><path style="fill: none; stroke-linecap: round; stroke-linejoin: round; paint-order: fill; stroke: url(&quot;#main&quot;); stroke-width: 12.745px;" d="M 265.348 270.026 C 285.032 287.35 305.234 287.35 325.965 270.026"/><path style="fill: none; stroke-linecap: round; stroke-linejoin: round; paint-order: fill; stroke: url(&quot;#main&quot;); stroke-width: 12.745px;" d="M 173.081 270.026 C 192.764 287.35 212.967 287.35 233.698 270.026"/></g></g></svg>