<?xml version="1.0" encoding="utf-8"?>
<svg xmlns="http://www.w3.org/2000/svg" xmlns:bx="https://boxy-svg.com" viewBox="0 0 500 500" width="500px" height="500px"><defs><linearGradient id="main" gradientUnits="userSpaceOnUse" gradientTransform="matrix(-0.053985, 0, -0.035152, 0.148016, 552.196602, 472.90601)"><title>miq</title><stop style="stop-color: rgb(255, 255, 255);"/></linearGradient><linearGradient id="background" gradientUnits="userSpaceOnUse" gradientTransform="matrix(0.865959, 0, 0, 0.865959, 33.469133, 34.163633)"><title>blacque</title><stop style="stop-color: rgb(0, 0, 0);"/></linearGradient><linearGradient id="gradient-1"><title>Crimmas</title><stop offset="0" style=""><title>red</title></stop><stop offset="1" style="stop-color: rgb(var(--accent-rgb)) stop-opacity: 0;"><title>blue</title><animate attributeName="stop-color" values="rgb(255, 255, 255); rgb(255, 255, 255)" begin="2.31s" dur="2s" fill="freeze"/></stop></linearGradient><linearGradient id="highlight" gradientUnits="userSpaceOnUse" gradientTransform="matrix(1, 0, 0, 1, -0.004776, -2.714157)"><title>fill</title><stop style="stop-color: rgb(var(--accent-rgb));"/></linearGradient><linearGradient id="christmas-one" gradientUnits="userSpaceOnUse" gradientTransform="matrix(1.098471, 0, 0, 1.098471, 30.638092, 82.331497)"><stop style="stop-color: rgb(255, 255, 0);"/></linearGradient><view id="view-1" viewBox="550 0 500 500"><title>View 1</title></view><filter id="blur-filter-0" color-interpolation-filters="sRGB" x="-50%" y="-50%" width="200%" height="200%"><title>blur</title><feGaussianBlur stdDeviation="15" edgeMode="none" in="SourceGraphic" result="gaussian-blur-0"/></filter><linearGradient id="christmas-rad" gradientUnits="userSpaceOnUse" gradientTransform="matrix(1.098471, 0, 0, 1.098471, -24.211212, -23.360582)"><stop style="stop-color: rgb(0, 255, 0);"/></linearGradient><linearGradient id="christmas-dog" gradientUnits="userSpaceOnUse" gradientTransform="matrix(1.098471, 0, 0, 1.098471, -24.211212, -23.360582)"><stop style="stop-color: rgb(0, 0, 255);"/></linearGradient><linearGradient id="christmas-frs" gradientUnits="userSpaceOnUse" gradientTransform="matrix(1.098471, 0, 0, 1.098471, -24.211212, -23.360582)"><stop style="stop-color: rgb(255, 0, 255);"/></linearGradient><linearGradient id="christmas-miq" gradientUnits="userSpaceOnUse" gradientTransform="matrix(1.098471, 0, 0, 1.098471, 84.696991, 188.024048)"><stop style="stop-color: rgb(102, 0, 255);"/></linearGradient></defs><g style="" transform="matrix(1.098471, 0, 0, 1.098471, 565.744446, -7.601352)" id="object-0"><title>icon</title><g transform="matrix(1, 0, 0, 1, -36.418781, -2.71343)" style=""><title>glow</title><g style="visibility: hidden;"><title>main</title><path style="fill-rule: nonzero; paint-order: fill; stroke-linecap: round; stroke-linejoin: round; filter: url(&quot;#blur-filter-0&quot;); stroke-width: 45.5178px; stroke-dasharray: 1, 200; stroke-dashoffset: -180px; stroke: url(&quot;#christmas-miq&quot;); fill: url(&quot;#main&quot;);" d="M 362.536 413.657 L 349.627 351.353 C 363.633 434.29 323.003 442.422 322.164 439.497 L 323.95 388.4 L 323.961 388.378 C 283.535 426.524 219.165 426.782 178.224 388.885 L 179.698 441.056 C 178.87 443.972 138.412 435.861 152.418 352.913 L 139.313 415.046 C 139.313 415.046 75.59 403.159 125.011 222.375 C 68.868 220.106 42.801 211.823 129.8 184.457 C 150.385 -10.451 150.385 -10.451 218.316 145.333 C 232.58 139.772 246.048 139.772 249.727 139.772 C 253.405 139.772 265.335 139.772 279.309 145.333 C 346.604 -10.451 346.604 -10.451 368.095 183.822 C 409.309 196.569 426.083 205.25 426.687 211.123 C 427.401 217.922 406.464 220.977 376.707 222.278 C 426.105 403.063 362.536 413.657 362.536 413.657 Z"><title>5</title><animate attributeName="stroke-dashoffset" values="0px;-1891px;0px" dur="5s" fill="freeze" keyTimes="0; 0.5; 1" calcMode="discrete" repeatCount="indefinite"/></path><path style="fill-rule: nonzero; paint-order: fill; stroke-linecap: round; stroke-linejoin: round; filter: url(&quot;#blur-filter-0&quot;); stroke-width: 45.5178px; stroke: url(&quot;#christmas-frs&quot;); stroke-dashoffset: -60px; stroke-dasharray: 1, 200; fill: url(&quot;#main&quot;);" d="M 361.747 413.657 L 348.837 351.353 C 362.843 434.29 322.214 442.422 321.374 439.497 L 323.161 388.4 L 323.172 388.378 C 282.746 426.524 218.375 426.782 177.434 388.885 L 178.908 441.056 C 178.08 443.972 137.622 435.861 151.628 352.913 L 138.526 415.046 C 138.526 415.046 74.801 403.159 124.219 222.375 C 68.078 220.106 42.013 211.823 129.006 184.457 C 149.594 -10.451 149.594 -10.451 217.526 145.333 C 231.79 139.772 245.258 139.772 248.937 139.772 C 252.616 139.772 264.545 139.772 278.519 145.333 C 345.814 -10.451 345.814 -10.451 367.304 183.822 C 408.518 196.569 425.303 205.25 425.907 211.123 C 426.61 217.922 405.673 220.977 375.916 222.278 C 425.325 403.063 361.747 413.657 361.747 413.657 Z"><animate attributeName="stroke-dashoffset" values="-60px;-1771px;-60px" dur="5s" fill="freeze" keyTimes="0; 0.5; 1" calcMode="discrete" repeatCount="indefinite"/><title>4</title></path><path style="fill-rule: nonzero; paint-order: fill; stroke-linecap: round; stroke-linejoin: round; filter: url(&quot;#blur-filter-0&quot;); stroke-width: 45.5178px; stroke: url(&quot;#christmas-dog&quot;); stroke-dasharray: 1, 200; stroke-dashoffset: -140px; fill: url(&quot;#main&quot;);" d="M 361.747 413.657 L 348.837 351.353 C 362.843 434.29 322.214 442.422 321.374 439.497 L 323.161 388.4 L 323.172 388.378 C 282.746 426.524 218.375 426.782 177.434 388.885 L 178.908 441.056 C 178.08 443.972 137.622 435.861 151.628 352.913 L 138.526 415.046 C 138.526 415.046 74.801 403.159 124.219 222.375 C 68.078 220.106 42.013 211.823 129.006 184.457 C 149.594 -10.451 149.594 -10.451 217.526 145.333 C 231.79 139.772 245.258 139.772 248.937 139.772 C 252.616 139.772 264.545 139.772 278.519 145.333 C 345.814 -10.451 345.814 -10.451 367.304 183.822 C 408.518 196.569 425.303 205.25 425.907 211.123 C 426.61 217.922 405.673 220.977 375.916 222.278 C 425.325 403.063 361.747 413.657 361.747 413.657 Z"><title>3</title><animate attributeName="stroke-dashoffset" values="-140px;-1851px;-140px" dur="5s" fill="freeze" keyTimes="0; 0.5; 1" calcMode="discrete" repeatCount="indefinite"/></path><path style="fill-rule: nonzero; paint-order: fill; stroke-linecap: round; stroke-linejoin: round; filter: url(&quot;#blur-filter-0&quot;); stroke-width: 45.5178px; stroke-dashoffset: -20px; stroke: url(&quot;#christmas-rad&quot;); stroke-dasharray: 1, 200; fill: url(&quot;#main&quot;);" d="M 361.747 413.657 L 348.837 351.353 C 362.843 434.29 322.214 442.422 321.374 439.497 L 323.161 388.4 L 323.172 388.378 C 282.746 426.524 218.375 426.782 177.434 388.885 L 178.908 441.056 C 178.08 443.972 137.622 435.861 151.628 352.913 L 138.526 415.046 C 138.526 415.046 74.801 403.159 124.219 222.375 C 68.078 220.106 42.013 211.823 129.006 184.457 C 149.594 -10.451 149.594 -10.451 217.526 145.333 C 231.79 139.772 245.258 139.772 248.937 139.772 C 252.616 139.772 264.545 139.772 278.519 145.333 C 345.814 -10.451 345.814 -10.451 367.304 183.822 C 408.518 196.569 425.303 205.25 425.907 211.123 C 426.61 217.922 405.673 220.977 375.916 222.278 C 425.325 403.063 361.747 413.657 361.747 413.657 Z"><title>2</title><animate attributeName="stroke-dashoffset" values="-20px;-1731px;-20px" dur="5s" keyTimes="0; 0.5; 1" calcMode="discrete" repeatCount="indefinite"/></path><path style="fill-rule: nonzero; paint-order: fill; stroke-linecap: round; stroke-linejoin: round; filter: url(&quot;#blur-filter-0&quot;); stroke: url(&quot;#christmas-one&quot;); stroke-width: 45.5178px; stroke-dasharray: 1, 200; stroke-dashoffset: -100px; fill: url(&quot;#main&quot;);" d="M 361.747 413.657 L 348.837 351.353 C 362.843 434.29 322.214 442.422 321.374 439.497 L 323.161 388.4 L 323.172 388.378 C 282.746 426.524 218.375 426.782 177.434 388.885 L 178.908 441.056 C 178.08 443.972 137.622 435.861 151.628 352.913 L 138.526 415.046 C 138.526 415.046 74.801 403.159 124.219 222.375 C 68.078 220.106 42.013 211.823 129.006 184.457 C 149.594 -10.451 149.594 -10.451 217.526 145.333 C 231.79 139.772 245.258 139.772 248.937 139.772 C 252.616 139.772 264.545 139.772 278.519 145.333 C 345.814 -10.451 345.814 -10.451 367.304 183.822 C 408.518 196.569 425.303 205.25 425.907 211.123 C 426.61 217.922 405.673 220.977 375.916 222.278 C 425.325 403.063 361.747 413.657 361.747 413.657 Z"><title>1</title><animate attributeName="stroke-dashoffset" values="-100px;-1871px;-100px" dur="5s" fill="freeze" keyTimes="0; 0.5; 1" calcMode="discrete" repeatCount="indefinite"/></path></g><path style="stroke-linejoin: round; fill-rule: nonzero; paint-order: fill; fill: none; stroke-linecap: round; stroke: url(&quot;#highlight&quot;); filter: url(&quot;#blur-filter-0&quot;); stroke-width: 18.2071px;" d="M 101.153 345.107 C 42.19 357.358 42.396 347.311 101.838 314.955 C 31.898 318.167 32.633 310.079 104.032 290.669 C 38.087 263.925 40.633 252.164 111.65 255.366"><title>whisker left</title></path><path style="stroke-linejoin: round; fill-rule: nonzero; stroke-linecap: round; paint-order: stroke; fill: none; stroke: url(&quot;#highlight&quot;); filter: url(&quot;#blur-filter-0&quot;); stroke-width: 18.2071px;" d="M 387.689 258.853 C 458.707 255.65 461.253 267.402 395.308 294.146 C 466.717 313.555 467.451 321.634 397.521 318.432 C 456.944 350.787 457.169 360.844 398.207 348.594"><title>whisker right</title></path></g><path style="fill-rule: nonzero; stroke-linecap: round; stroke-linejoin: round; stroke-dashoffset: -52px; paint-order: fill; filter: none; vector-effect: non-scaling-stroke; fill: url(&quot;#main&quot;); stroke: url(&quot;#main&quot;);" d="M 337.164 257.819 L 351.27 256.14 C 422.288 252.937 424.834 264.689 358.889 291.433 C 430.298 310.842 431.032 318.921 361.102 315.719 C 420.525 348.074 420.75 358.131 361.788 345.881 L 344.353 342.675 C 346.58 308.184 342.847 282.798 337.164 257.819 Z" id="object-3"/><path style="fill-rule: nonzero; stroke-linecap: round; stroke-linejoin: round; stroke-dashoffset: -52px; paint-order: fill; filter: none; vector-effect: non-scaling-stroke; fill: url(&quot;#main&quot;); stroke: url(&quot;#main&quot;);" d="M 82.04 338.623 L 64.734 342.394 C 5.771 354.645 5.977 344.598 65.419 312.242 C -4.521 315.454 -3.786 307.366 67.613 287.956 C 1.668 261.212 4.214 249.451 75.231 252.653 L 90.156 253.908 C 85.362 271.181 78.956 314.473 82.04 338.623 Z" id="object-3"/><path style="fill-rule: nonzero; stroke-linecap: round; stroke-linejoin: round; stroke-dashoffset: -52px; paint-order: fill; filter: none; vector-effect: non-scaling-stroke; fill: url(&quot;#main&quot;);" d="M 314.92 395.128 L 303.168 338.409 C 315.918 413.911 278.931 421.314 278.167 418.651 L 279.793 372.135 L 279.803 372.115 C 243.001 406.841 184.401 407.076 147.13 372.576 L 148.472 420.071 C 147.718 422.725 110.887 415.341 123.637 339.829 L 111.71 396.392 C 111.71 396.392 53.697 385.571 98.685 220.993 C 47.577 218.927 23.849 211.387 103.043 186.474 C 121.786 9.038 121.786 9.038 183.628 150.857 C 196.613 145.795 208.874 145.795 212.223 145.795 C 215.572 145.795 226.432 145.795 239.153 150.857 C 300.416 9.038 300.416 9.038 319.982 185.896 C 357.499 197.5 372.775 205.403 373.324 210.75 C 373.97 216.939 354.913 219.72 327.817 220.905 C 372.795 385.483 314.92 395.128 314.92 395.128 Z" id="object-3"/></g><g style="" transform="matrix(1.098471, 0, 0, 1.098471, -24.255268, -7.601352)" id="object-2"><title>miq</title><g style=""><title>glow</title><path style="stroke-linejoin: round; fill-rule: nonzero; paint-order: fill; fill: none; stroke-linecap: round; stroke: url(&quot;#highlight&quot;); filter: url(&quot;#blur-filter-0&quot;); stroke-width: 18.2071px;" d="M 101.153 345.107 C 42.19 357.358 42.396 347.311 101.838 314.955 C 31.898 318.167 32.633 310.079 104.032 290.669 C 38.087 263.925 40.633 252.164 111.65 255.366"><title>whisker left</title></path><path style="stroke-linejoin: round; fill-rule: nonzero; stroke-linecap: round; paint-order: stroke; fill: none; stroke: url(&quot;#highlight&quot;); filter: url(&quot;#blur-filter-0&quot;); stroke-width: 18.2071px;" d="M 387.689 258.853 C 458.707 255.65 461.253 267.402 395.308 294.146 C 466.717 313.555 467.451 321.634 397.521 318.432 C 456.944 350.787 457.169 360.844 398.207 348.594"><title>whisker right</title></path><path style="fill-rule: nonzero; paint-order: fill; stroke-linecap: round; stroke-linejoin: round; filter: url(&quot;#blur-filter-0&quot;); stroke-width: 45.5178px; stroke-dasharray: 1, 200; stroke-dashoffset: -180px; stroke: url(&quot;#christmas-miq&quot;); fill: none; visibility: hidden;" d="M 352.414 395.128 L 340.662 338.409 C 353.412 413.911 316.425 421.314 315.661 418.651 L 317.287 372.135 L 317.297 372.115 C 280.495 406.841 221.895 407.076 184.624 372.576 L 185.966 420.071 C 185.212 422.725 148.381 415.341 161.131 339.829 L 149.201 396.392 C 149.201 396.392 91.191 385.571 136.181 220.993 C 85.071 218.927 61.341 211.387 140.541 186.474 C 159.281 9.038 159.281 9.038 221.122 150.857 C 234.107 145.795 246.368 145.795 249.717 145.795 C 253.066 145.795 263.926 145.795 276.647 150.857 C 337.91 9.038 337.91 9.038 357.474 185.896 C 394.994 197.5 410.264 205.403 410.814 210.75 C 411.464 216.939 392.404 219.72 365.314 220.905 C 410.284 385.483 352.414 395.128 352.414 395.128 Z"><title>5</title><animate attributeName="stroke-dashoffset" values="0px;-1891px;0px" dur="5s" fill="freeze" keyTimes="0; 0.5; 1" calcMode="discrete" repeatCount="indefinite"/></path><path style="fill-rule: nonzero; paint-order: fill; stroke-linecap: round; stroke-linejoin: round; filter: url(&quot;#blur-filter-0&quot;); stroke-width: 45.5178px; stroke: url(&quot;#christmas-frs&quot;); stroke-dashoffset: -60px; stroke-dasharray: 1, 200; fill: none; visibility: hidden;" d="M 351.695 395.128 L 339.943 338.409 C 352.693 413.911 315.706 421.314 314.942 418.651 L 316.568 372.135 L 316.578 372.115 C 279.776 406.841 221.176 407.076 183.905 372.576 L 185.247 420.071 C 184.493 422.725 147.662 415.341 160.412 339.829 L 148.485 396.392 C 148.485 396.392 90.472 385.571 135.46 220.993 C 84.352 218.927 60.624 211.387 139.818 186.474 C 158.561 9.038 158.561 9.038 220.403 150.857 C 233.388 145.795 245.649 145.795 248.998 145.795 C 252.347 145.795 263.207 145.795 275.928 150.857 C 337.191 9.038 337.191 9.038 356.754 185.896 C 394.274 197.5 409.554 205.403 410.104 210.75 C 410.744 216.939 391.684 219.72 364.594 220.905 C 409.574 385.483 351.695 395.128 351.695 395.128 Z"><animate attributeName="stroke-dashoffset" values="-60px;-1771px;-60px" dur="5s" fill="freeze" keyTimes="0; 0.5; 1" calcMode="discrete" repeatCount="indefinite"/><title>4</title></path><path style="fill-rule: nonzero; paint-order: fill; stroke-linecap: round; stroke-linejoin: round; filter: url(&quot;#blur-filter-0&quot;); stroke-width: 45.5178px; stroke: url(&quot;#christmas-dog&quot;); stroke-dasharray: 1, 200; stroke-dashoffset: -140px; fill: none; visibility: hidden;" d="M 351.695 395.128 L 339.943 338.409 C 352.693 413.911 315.706 421.314 314.942 418.651 L 316.568 372.135 L 316.578 372.115 C 279.776 406.841 221.176 407.076 183.905 372.576 L 185.247 420.071 C 184.493 422.725 147.662 415.341 160.412 339.829 L 148.485 396.392 C 148.485 396.392 90.472 385.571 135.46 220.993 C 84.352 218.927 60.624 211.387 139.818 186.474 C 158.561 9.038 158.561 9.038 220.403 150.857 C 233.388 145.795 245.649 145.795 248.998 145.795 C 252.347 145.795 263.207 145.795 275.928 150.857 C 337.191 9.038 337.191 9.038 356.754 185.896 C 394.274 197.5 409.554 205.403 410.104 210.75 C 410.744 216.939 391.684 219.72 364.594 220.905 C 409.574 385.483 351.695 395.128 351.695 395.128 Z"><title>3</title><animate attributeName="stroke-dashoffset" values="-140px;-1851px;-140px" dur="5s" fill="freeze" keyTimes="0; 0.5; 1" calcMode="discrete" repeatCount="indefinite"/></path><path style="fill-rule: nonzero; paint-order: fill; stroke-linecap: round; stroke-linejoin: round; filter: url(&quot;#blur-filter-0&quot;); stroke-width: 45.5178px; stroke-dashoffset: -20px; stroke: url(&quot;#christmas-rad&quot;); stroke-dasharray: 1, 200; fill: none; visibility: hidden;" d="M 351.695 395.128 L 339.943 338.409 C 352.693 413.911 315.706 421.314 314.942 418.651 L 316.568 372.135 L 316.578 372.115 C 279.776 406.841 221.176 407.076 183.905 372.576 L 185.247 420.071 C 184.493 422.725 147.662 415.341 160.412 339.829 L 148.485 396.392 C 148.485 396.392 90.472 385.571 135.46 220.993 C 84.352 218.927 60.624 211.387 139.818 186.474 C 158.561 9.038 158.561 9.038 220.403 150.857 C 233.388 145.795 245.649 145.795 248.998 145.795 C 252.347 145.795 263.207 145.795 275.928 150.857 C 337.191 9.038 337.191 9.038 356.754 185.896 C 394.274 197.5 409.554 205.403 410.104 210.75 C 410.744 216.939 391.684 219.72 364.594 220.905 C 409.574 385.483 351.695 395.128 351.695 395.128 Z"><title>2</title><animate attributeName="stroke-dashoffset" values="-20px;-1731px;-20px" dur="5s" keyTimes="0; 0.5; 1" calcMode="discrete" repeatCount="indefinite"/></path><path style="fill-rule: nonzero; paint-order: fill; stroke-linecap: round; stroke-linejoin: round; filter: url(&quot;#blur-filter-0&quot;); stroke: url(&quot;#christmas-one&quot;); stroke-width: 45.5178px; stroke-dasharray: 1, 200; stroke-dashoffset: -100px; fill: none; visibility: hidden;" d="M 351.695 395.128 L 339.943 338.409 C 352.693 413.911 315.706 421.314 314.942 418.651 L 316.568 372.135 L 316.578 372.115 C 279.776 406.841 221.176 407.076 183.905 372.576 L 185.247 420.071 C 184.493 422.725 147.662 415.341 160.412 339.829 L 148.485 396.392 C 148.485 396.392 90.472 385.571 135.46 220.993 C 84.352 218.927 60.624 211.387 139.818 186.474 C 158.561 9.038 158.561 9.038 220.403 150.857 C 233.388 145.795 245.649 145.795 248.998 145.795 C 252.347 145.795 263.207 145.795 275.928 150.857 C 337.191 9.038 337.191 9.038 356.754 185.896 C 394.274 197.5 409.554 205.403 410.104 210.75 C 410.744 216.939 391.684 219.72 364.594 220.905 C 409.574 385.483 351.695 395.128 351.695 395.128 Z"><title>1</title><animate attributeName="stroke-dashoffset" values="-100px;-1871px;-100px" dur="5s" fill="freeze" keyTimes="0; 0.5; 1" calcMode="discrete" repeatCount="indefinite"/></path></g><g style="" id="object-1"><title>background</title><path style="fill-rule: nonzero; paint-order: fill; fill: url(&quot;#background&quot;); filter: none; stroke-linecap: round; stroke-linejoin: round; stroke-dashoffset: -52px; stroke-width: 31.8625px; stroke: url(&quot;#background&quot;);" d="M 351.339 397.841 L 339.587 341.122 C 352.337 416.624 315.35 424.027 314.586 421.364 L 316.212 374.848 L 316.222 374.828 C 279.42 409.554 220.82 409.789 183.549 375.289 L 184.891 422.784 C 184.137 425.438 147.306 418.054 160.056 342.542 L 148.129 399.105 C 148.129 399.105 90.116 388.284 135.104 223.706 C 83.996 221.64 60.268 214.1 139.462 189.187 C 158.205 11.751 158.205 11.751 220.047 153.57 C 233.032 148.508 245.293 148.508 248.642 148.508 C 251.991 148.508 262.851 148.508 275.572 153.57 C 336.835 11.751 336.835 11.751 356.401 188.609 C 393.918 200.213 409.194 208.116 409.743 213.463 C 410.389 219.652 391.332 222.433 364.236 223.618 C 409.214 388.196 351.339 397.841 351.339 397.841 Z"><title>main</title></path></g><path style="stroke-linecap: round; stroke-linejoin: round; paint-order: stroke; fill: none; stroke: url(&quot;#main&quot;); stroke-width: 12.745px;" d="M 139.442 189.216 C 158.186 11.791 158.186 11.791 220.027 153.6 C 233.012 148.537 245.273 148.537 248.622 148.537 C 251.971 148.537 262.841 148.537 275.552 153.6 C 336.826 11.791 336.826 11.791 356.382 188.638 C 393.898 200.243 409.175 208.155 409.723 213.492 C 411.163 227.359 313.881 224.127 248.622 224.127 C 158.186 224.127 8.826 230.316 139.442 189.216 Z"><title>hat</title></path><g style=""><title>bacque hair</title><path style="stroke-linecap: round; stroke-linejoin: round; paint-order: stroke; fill: none; stroke: url(&quot;#main&quot;); stroke-width: 12.745px;" d="M 364.216 223.638 C 409.204 388.225 351.329 397.881 351.329 397.881 L 339.568 341.141 C 352.318 416.653 315.33 424.057 314.567 421.403 L 316.192 374.877 M 183.529 375.328 L 184.871 422.813 C 184.117 425.477 147.286 418.083 160.037 342.571 L 148.119 399.144 C 148.119 399.144 90.097 388.323 135.094 223.736"/></g><g style=""><title>front hair</title><path style="stroke-linecap: round; stroke-linejoin: round; paint-order: stroke; fill: none; stroke: url(&quot;#main&quot;); stroke-width: 12.745px;" d="M 172.131 224.451 C 161.094 359.865 120.777 359.268 120.777 359.268"><title>left</title></path><path style="stroke-linecap: round; stroke-linejoin: round; paint-order: stroke; fill: none; stroke: url(&quot;#main&quot;); stroke-width: 12.745px;" d="M 327.327 224.46 C 338.353 359.885 378.367 359.522 378.367 359.522"><title>right</title></path></g><path style="stroke-linecap: round; stroke-linejoin: round; paint-order: stroke; fill: none; stroke: url(&quot;#main&quot;); stroke-width: 12.745px;" d="M 152.937 322.065 C 179.661 427.876 320.942 427.141 346.109 321.331"><title>3</title></path><g><title>whiskers</title><path style="fill: none; stroke-linecap: round; stroke-linejoin: round; paint-order: fill; stroke: url(&quot;#main&quot;); stroke-width: 12.745px;" d="M 111.631 255.406 C 40.614 252.203 38.068 263.955 104.022 290.699 C 32.613 310.108 31.879 318.197 101.819 314.985 C 42.376 347.35 42.171 357.397 101.133 345.147"><title>left</title></path><path style="fill: none; stroke-linecap: round; stroke-linejoin: round; paint-order: fill; stroke: url(&quot;#main&quot;); stroke-width: 12.745px;" d="M 387.67 258.882 C 458.697 255.68 461.233 267.441 395.288 294.185 C 466.697 313.584 467.432 321.673 397.502 318.471 C 456.934 350.826 457.149 360.874 398.187 348.633"><title>right</title></path></g><g style=""><title>face</title><path style="fill: none; paint-order: fill; stroke: url(&quot;#main&quot;); stroke-linecap: square; stroke-miterlimit: 1; stroke-linejoin: round; stroke-width: 12.745px;" d="M 206.415 346.939 L 209.42633333333333 349.5846666666667 C 212.43766666666667 352.23033333333336 218.46033333333332 357.5216666666667 225.65483333333336 357.4448333333333 C 232.84933333333333 357.368 241.21566666666664 351.923 249.53949999999998 351.9213333333333 C 257.8633333333333 351.91966666666667 266.14466666666664 357.36133333333333 273.41583333333335 357.51483333333334 C 280.68699999999995 357.66833333333335 286.94800000000004 352.5336666666667 290.0785 349.9663333333333 L 293.209 347.399"><title>3</title></path><path style="fill: none; stroke-linecap: round; stroke-linejoin: round; paint-order: fill; stroke: url(&quot;#main&quot;); stroke-width: 12.745px;" d="M 265.348 270.026 C 285.032 287.35 305.234 287.35 325.965 270.026"/><path style="fill: none; stroke-linecap: round; stroke-linejoin: round; paint-order: fill; stroke: url(&quot;#main&quot;); stroke-width: 12.745px;" d="M 173.081 270.026 C 192.764 287.35 212.967 287.35 233.698 270.026"/></g></g></svg>